<?xml version="1.0" encoding="UTF-8"?>
<svg version="1.1" xmlns="http://www.w3.org/2000/svg" width="612" height="612">
<path d="M0 0 C2.875 0.0625 2.875 0.0625 6 1 C30.02131198 27.80908513 31.97215567 81.33429413 38.14355469 115.44042969 C40.3800005 127.74239317 42.67801706 139.93842971 46 152 C55.87036102 143.21161587 59.90323069 125.86249231 64.53488159 113.80838013 C71.63086675 95.36453023 78.87319699 77.01853246 87 59 C87.4645459 57.9692334 87.9290918 56.9384668 88.40771484 55.87646484 C105.81920209 17.59039896 105.81920209 17.59039896 117 12 C118.99960012 11.960008 121.00047242 11.95653201 123 12 C139.47330706 42.08169116 116.69429633 105.2324166 109.73242188 136.47680664 C107.33815298 147.28755447 105.15460222 157.97879698 104 169 C113.23687842 164.50862311 119.96808086 157.10785326 127.1875 149.9375 C127.75726563 149.37248779 128.32703125 148.80747559 128.9140625 148.2253418 C131.77053005 145.35774194 134.5110054 142.43774464 137.14013672 139.35986328 C141.28004166 134.61031445 145.69311237 130.1629823 150.15234375 125.71484375 C151.44078941 124.424963 151.44078941 124.424963 152.75526428 123.10902405 C154.56177015 121.30184139 156.36952462 119.49590608 158.1784668 117.69116211 C160.9293681 114.94561607 163.67489221 112.19477454 166.41992188 109.44335938 C168.18457532 107.6793668 169.94953897 105.9156845 171.71484375 104.15234375 C172.52654526 103.33861801 173.33824677 102.52489227 174.17454529 101.68650818 C206.69803451 69.29485415 206.69803451 69.29485415 221.625 66.875 C225 67 225 67 228 69 C230.83194441 77.93151698 225.98342336 86.92403319 222.125 94.8125 C221.63668701 95.81804932 221.14837402 96.82359863 220.64526367 97.85961914 C209.35460611 120.71622838 194.57045488 141.64877568 180 162.5 C174.36890754 170.55853953 168.79730318 178.65353933 163.3125 186.8125 C162.65314453 187.78445312 161.99378906 188.75640625 161.31445312 189.7578125 C157.38212193 195.63800993 153.99011229 201.58788 151 208 C158.40935504 206.15253465 165.36108098 203.81953058 172.375 200.8125 C173.37394287 200.39105713 174.37288574 199.96961426 175.40209961 199.53540039 C182.73591107 196.42827958 190.03879093 193.25010004 197.34306335 190.07435608 C218.6221712 180.82372301 239.86452392 171.95136591 261.875 164.5625 C262.51670135 164.34636047 263.15840271 164.13022095 263.81954956 163.90753174 C273.54139345 160.64703412 282.57164841 157.7078595 292.875 157.75 C294.15117188 157.74484375 295.42734375 157.7396875 296.7421875 157.734375 C300 158 300 158 303 160 C303.59686312 163.3159062 303.63394155 165.75619064 302.07421875 168.81640625 C293.09032662 181.51046032 280.39062242 190.9162608 268 200 C266.57277723 201.06101038 265.14569288 202.12220698 263.71875 203.18359375 C247.28638564 215.31162359 229.97530292 226.12944974 212.73876953 237.06420898 C194.1949465 246.8330399 194.1949465 246.8330399 181 261 C184.77595051 262.25865017 188.28950538 262.12326997 192.22143555 262.09765625 C193.48099815 262.09546585 193.48099815 262.09546585 194.76600647 262.0932312 C196.59442924 262.08942134 198.4228483 262.08330072 200.25125694 262.07516479 C203.16912444 262.06235777 206.08694613 262.05587153 209.00483704 262.05102539 C216.27202689 262.03767053 223.5391748 262.01380096 230.80633545 261.98962402 C320.0352616 261.69759505 320.0352616 261.69759505 335 271 C337 273 337 273 337.4375 275.8125 C336.83342016 280.21365311 335.49567092 281.27337668 332 284 C319.08120749 292.12337866 302.57713904 295.67978408 287.875 299.125 C287.11938782 299.30476379 286.36377563 299.48452759 285.58526611 299.66973877 C265.17516526 304.49383114 244.51267424 308.1634051 223.88623047 311.92626953 C222.51769243 312.17677645 221.14916203 312.42732509 219.78063965 312.67791748 C217.2367846 313.14365477 214.69212168 313.60365675 212.14660645 314.06036377 C204.67860851 315.42182706 197.34261977 317.07683377 190 319 C188.66711743 319.33513123 187.33396292 319.66919521 186 320 C189.58637028 324.32520642 193.96677937 326.08000518 199 328.26171875 C199.88502197 328.65219894 200.77004395 329.04267914 201.68188477 329.44499207 C210.1705705 333.15146971 218.77872268 336.52893123 227.43121338 339.83071899 C314.78830123 373.21828372 314.78830123 373.21828372 325 389 C326.125 392.75 326.125 392.75 326 396 C323.17043259 399.86645723 319.44141046 399.95578676 314.96582031 400.66064453 C310.55929533 401.16484849 306.29953361 401.16819363 301.875 400.9375 C300.4043811 400.86196899 300.4043811 400.86196899 298.90405273 400.78491211 C270.06509923 398.97233039 241.73621192 392.19981599 213.56054688 386.18505859 C205.90075435 384.55069979 198.23563063 382.94548962 190.5625 381.375 C189.39243408 381.12758057 188.22236816 380.88016113 187.0168457 380.62524414 C180.87627242 379.3750758 175.26720167 378.74957554 169 379 C173.83873656 387.52396626 181.19528652 394.28158761 188.0625 401.1875 C188.62751221 401.75718506 189.19252441 402.32687012 189.7746582 402.91381836 C192.64659396 405.7750179 195.57175782 408.5196846 198.65380859 411.15380859 C203.32103423 415.22188847 207.69551697 419.55150242 212.06640625 423.93359375 C213.32299294 425.18874535 213.32299294 425.18874535 214.60496521 426.46925354 C216.36506935 428.22868104 218.12392677 429.98935653 219.8815918 431.7512207 C222.55470972 434.42969411 225.23312251 437.10278873 227.91210938 439.77539062 C229.63052903 441.49447115 231.34863842 443.21386189 233.06640625 444.93359375 C234.25418419 446.11833534 234.25418419 446.11833534 235.46595764 447.32701111 C240.17814834 452.05888953 244.66628789 456.91987351 249 462 C249.84304688 462.97324219 250.68609375 463.94648438 251.5546875 464.94921875 C269.78605949 486.4646931 269.78605949 486.4646931 271 496 C270.592019 498.26054776 270.02810793 499.94378414 269 502 C256.11191322 505.77212296 240.20533143 494.87861595 229.2109375 488.94140625 C219.85943648 483.75622159 210.93459354 477.86426822 202 472 C201.32018066 471.55688477 200.64036133 471.11376953 199.93994141 470.65722656 C186.95906604 462.18980668 174.32198738 453.20615503 161.61572266 444.33544922 C146.51826724 433.39408222 146.51826724 433.39408222 130 425 C131.91228925 434.04636189 134.96862007 442.14436044 138.75 450.5625 C139.32330315 451.86071735 139.89537313 453.15947987 140.46630859 454.45874023 C141.67749937 457.21363372 142.89243339 459.96682417 144.11035156 462.71875 C179.95304692 543.81418359 179.95304692 543.81418359 180.25 567.125 C180.27578125 568.34445312 180.3015625 569.56390625 180.328125 570.8203125 C180 574 180 574 178.65234375 575.89453125 C175.8843647 577.7463943 174.27157156 577.55554989 171 577 C166.03818816 574.08128715 161.9520095 570.14960997 158 566 C157.14341797 565.19175781 157.14341797 565.19175781 156.26953125 564.3671875 C150.09910211 558.48003156 145.05533967 551.83433437 140 545 C139.30293945 544.06945801 139.30293945 544.06945801 138.59179688 543.12011719 C124.91424203 524.83121983 112.70463466 505.47643409 100.5 486.1875 C96.39892827 479.71097316 92.25059138 473.27529906 87.9375 466.9375 C87.50824219 466.30030029 87.07898438 465.66310059 86.63671875 465.0065918 C82.20288438 458.56498655 82.20288438 458.56498655 76 454 C76.00222061 454.98351944 76.00444122 455.96703888 76.00672913 456.98036194 C76.02730093 466.40375121 76.04213181 475.82713574 76.05181217 485.25054264 C76.05695671 490.09127322 76.06389387 494.9319852 76.07543945 499.77270508 C76.11835974 518.30316479 76.15674553 536.82821077 75.58203125 555.3515625 C75.54618423 556.54100967 75.51033722 557.73045685 75.47340393 558.95594788 C73.99669289 600.03528054 73.99669289 600.03528054 65 611 C62 612 62 612 59.4921875 611.27734375 C50.85324673 606.84954809 47.72144103 593.66206777 44.9296875 585.02880859 C37.25323532 560.01986275 32.79023446 534.19167224 28.02539062 508.51269531 C26.70854657 501.41965241 25.36198592 494.33246901 23.99688721 487.24856567 C23.64092948 485.39542979 23.28983283 483.54136216 22.93896484 481.68725586 C21.53823628 474.38841819 19.8799851 467.19033263 18 460 C13.05882971 464.19826706 11.10327014 468.65842084 8.75 474.625 C8.3387085 475.63699463 7.92741699 476.64898926 7.50366211 477.69165039 C4.23697953 485.77521658 1.06986181 493.89884631 -2.12193298 502.01219177 C-3.22688671 504.82072049 -4.3321604 507.62912313 -5.4375 510.4375 C-5.99043228 511.84320755 -5.99043228 511.84320755 -6.55453491 513.27731323 C-14.54031602 533.56035294 -22.80161693 553.70968584 -33 573 C-33.35271973 573.67885254 -33.70543945 574.35770508 -34.06884766 575.05712891 C-45.45190537 596.84411056 -45.45190537 596.84411056 -53.12109375 599.82421875 C-55.0625 600.125 -55.0625 600.125 -58 600 C-68.18001602 586.20772024 -62.33275837 562.81777654 -60 547 C-56.24064492 522.75487339 -50.91130734 498.7716873 -45.64453125 474.8203125 C-45.29405228 473.22261269 -45.29405228 473.22261269 -44.93649292 471.59263611 C-44.49733946 469.59401293 -44.05586336 467.59589809 -43.61160278 465.59840393 C-41.52490675 456.17325725 -41.52490675 456.17325725 -40.9375 446.5625 C-40.958125 445.386875 -40.97875 444.21125 -41 443 C-46.27097412 445.75822214 -50.19933898 448.77512033 -54.34375 453.015625 C-54.91653687 453.59028503 -55.48932373 454.16494507 -56.07946777 454.75701904 C-57.2829183 455.96715221 -58.48278601 457.18085806 -59.67919922 458.39794922 C-61.48811049 460.23790643 -63.30736402 462.0670861 -65.12890625 463.89453125 C-66.30530965 465.08011215 -67.48111059 466.26629122 -68.65625 467.453125 C-69.45500549 468.25825531 -69.45500549 468.25825531 -70.26989746 469.07965088 C-73.09161303 471.95375875 -75.79950251 474.89094031 -78.43383789 477.93823242 C-81.93150891 481.97118074 -85.622652 485.7674428 -89.40234375 489.53515625 C-90.08373917 490.21750839 -90.76513458 490.89986053 -91.46717834 491.60289001 C-92.89705741 493.03344437 -94.32817911 494.46275767 -95.76049805 495.89086914 C-97.93197711 498.05699074 -100.09806325 500.22840174 -102.26367188 502.40039062 C-103.66374202 503.79979987 -105.06412238 505.19889884 -106.46484375 506.59765625 C-107.10155502 507.23639175 -107.7382663 507.87512726 -108.39427185 508.53321838 C-112.20174534 512.32125474 -116.12023616 515.92897329 -120.18760681 519.43678284 C-121.92645282 520.93656442 -123.64215844 522.45901223 -125.3515625 523.9921875 C-134.82417211 532.38323369 -145.49482894 541.75791861 -158 545 C-160.24870002 544.58731722 -161.95264234 544.02367883 -164 543 C-167.18922265 532.97672882 -160.9112143 522.12734828 -156.38110352 513.3215332 C-155.26709533 511.20711068 -154.13623688 509.10255093 -153 507 C-152.65211426 506.34483398 -152.30422852 505.68966797 -151.94580078 505.01464844 C-139.0783849 480.99939811 -122.74632878 458.57260577 -107.05078125 436.34375 C-95.96588337 420.79991091 -95.96588337 420.79991091 -87 404 C-95.21741002 405.81676511 -102.73993059 408.30736582 -110.4375 411.6875 C-111.52804688 412.15663818 -112.61859375 412.62577637 -113.7421875 413.10913086 C-117.49958317 414.72859953 -121.25054078 416.36226906 -125 418 C-212.9365168 456.39338033 -212.9365168 456.39338033 -236 454 C-236.99 453.34 -237.98 452.68 -239 452 C-239.61085592 447.46221314 -239.25168907 444.40825206 -236.4453125 440.71875 C-235.72988281 439.86796875 -235.72988281 439.86796875 -235 439 C-234.37867188 438.2471875 -233.75734375 437.494375 -233.1171875 436.71875 C-227.64082067 430.35909819 -221.64260812 425.09424867 -215 420 C-213.98147949 419.20964355 -213.98147949 419.20964355 -212.94238281 418.40332031 C-199.40263811 407.92340492 -185.33675827 398.35017076 -171 389 C-170.22027832 388.48985352 -169.44055664 387.97970703 -168.63720703 387.45410156 C-161.9577804 383.08753753 -155.24450356 378.77808454 -148.48828125 374.53125 C-130.74538045 364.04492194 -130.74538045 364.04492194 -116 350 C-116.56263707 349.99761165 -117.12527414 349.99522329 -117.70496082 349.99276257 C-131.53420159 349.93306032 -145.36327409 349.85699501 -159.19233418 349.76428509 C-165.88057054 349.71973298 -172.56874275 349.68059304 -179.25708008 349.65356445 C-185.73469504 349.62718897 -192.21208954 349.58655686 -198.68956566 349.53681374 C-201.13733321 349.52037285 -203.58513869 349.5087192 -206.03295326 349.50238609 C-218.962845 349.46561298 -231.73526401 349.03742357 -244.59838867 347.65551758 C-245.69606977 347.53977481 -246.79375086 347.42403204 -247.92469501 347.30478191 C-256.79673801 346.25662031 -265.99551594 344.92687112 -273 339 C-274.0625 337.0625 -274.0625 337.0625 -274 335 C-269.98744025 326.98932571 -261.43631289 323.82642893 -253.32617188 321.03613281 C-252.39353516 320.73545898 -251.46089844 320.43478516 -250.5 320.125 C-249.45908203 319.78823242 -248.41816406 319.45146484 -247.34570312 319.10449219 C-219.34992184 310.32005994 -190.3395901 305.47146462 -161.52734375 300.21191406 C-148.27124522 297.78756202 -135.06141714 295.34019353 -122 292 C-125.1082263 288.66963396 -127.69775753 286.34308936 -131.91015625 284.59765625 C-132.88114258 284.1898291 -133.85212891 283.78200195 -134.85253906 283.36181641 C-135.91182617 282.93304199 -136.97111328 282.50426758 -138.0625 282.0625 C-139.19010742 281.59505371 -140.31771484 281.12760742 -141.47949219 280.64599609 C-151.94018279 276.34617715 -162.50066405 272.30209066 -173.05435181 268.23751831 C-194.08027449 260.12932651 -215.10551371 251.63232985 -235 241 C-235.67160156 240.65018066 -236.34320313 240.30036133 -237.03515625 239.93994141 C-257.96709803 229.00656758 -257.96709803 229.00656758 -262 221.01953125 C-262.4375 219.1875 -262.4375 219.1875 -262 216 C-258.71562604 212.21799362 -255.8177078 211.60939979 -251 211 C-212.96223886 208.74462534 -172.96078745 220.44754048 -136.08862305 228.35546875 C-134.99865524 228.5891214 -133.90868744 228.82277405 -132.78569031 229.06350708 C-130.73597895 229.50363212 -128.68657148 229.94517569 -126.63752747 230.38839722 C-117.71604038 232.41996394 -117.71604038 232.41996394 -108.625 233.0625 C-106.830625 233.0315625 -106.830625 233.0315625 -105 233 C-107.71589145 227.83057512 -110.63235482 223.94120125 -114.796875 219.875 C-115.34933899 219.32440918 -115.90180298 218.77381836 -116.4710083 218.20654297 C-117.63406241 217.05016907 -118.80068775 215.89737689 -119.97070312 214.74804688 C-121.73823286 213.01156048 -123.49497877 211.26474369 -125.25 209.515625 C-126.39000823 208.38479455 -127.53061444 207.25456655 -128.671875 206.125 C-129.18675476 205.61437012 -129.70163452 205.10374023 -130.2321167 204.57763672 C-133.04212525 201.82087466 -135.91775863 199.18041114 -138.8972168 196.60717773 C-143.09933056 192.96103383 -147.04573387 189.09876045 -150.97265625 185.16015625 C-151.69940048 184.43436874 -152.42614471 183.70858124 -153.1749115 182.96080017 C-154.69962296 181.43676444 -156.2230915 179.91148431 -157.74536133 178.38500977 C-160.05633891 176.06867537 -162.37260771 173.75772922 -164.68945312 171.44726562 C-166.1800082 169.95604966 -167.670253 168.46452347 -169.16015625 166.97265625 C-169.84263931 166.29219742 -170.52512238 165.61173859 -171.22828674 164.91065979 C-175.68397701 160.43350557 -179.88311335 155.78891215 -184 151 C-184.92350953 149.95487156 -185.84793514 148.91055162 -186.7734375 147.8671875 C-207.18247245 124.39373288 -207.18247245 124.39373288 -206.9375 113.125 C-206 111 -206 111 -204.20849609 109.85449219 C-198.18750021 107.52490059 -191.01267732 110.34417029 -185.375 112.75 C-184.65248047 113.05671631 -183.92996094 113.36343262 -183.18554688 113.67944336 C-152.08193292 127.36097195 -123.7566595 148.89125317 -96.19140625 168.54003906 C-86.47935394 175.44738824 -76.68255153 181.68725669 -66 187 C-67.88622056 178.23114391 -70.7404154 170.31003501 -74.375 162.125 C-75.17766034 160.2827398 -75.9803147 158.44047698 -76.78266907 156.5980835 C-77.90076778 154.03673675 -79.0272133 151.47910031 -80.15386963 148.92150879 C-118.4789165 61.88774081 -118.4789165 61.88774081 -116 38 C-115.34 37.01 -114.68 36.02 -114 35 C-109.46221314 34.38914408 -106.40825206 34.74831093 -102.71875 37.5546875 C-102.1515625 38.03164063 -101.584375 38.50859375 -101 39 C-100.2471875 39.62132812 -99.494375 40.24265625 -98.71875 40.8828125 C-92.35490495 46.36279018 -87.10933004 52.35453152 -82 59 C-81.34741211 59.84014648 -81.34741211 59.84014648 -80.68164062 60.69726562 C-65.3708295 80.456634 -51.76226137 101.52232233 -38.4296875 122.6484375 C-27.64853063 141.49092517 -27.64853063 141.49092517 -13 157 C-11.82088198 153.46264594 -11.87553371 150.28661754 -11.90234375 146.6081543 C-11.90453415 145.48009117 -11.90453415 145.48009117 -11.9067688 144.32923889 C-11.91057868 142.69071996 -11.91669931 141.05220517 -11.92483521 139.41370201 C-11.93767602 136.78822894 -11.94413826 134.16280703 -11.94897461 131.53730774 C-11.96231291 124.99056406 -11.98603184 118.44386643 -12.01037598 111.89715576 C-12.35782938 17.09051904 -12.35782938 17.09051904 -2 2 C-1.34 1.34 -0.68 0.68 0 0 Z " fill="#BEE811" transform="translate(274,0)"/>
<path d="M0 0 C2.875 0.0625 2.875 0.0625 6 1 C30.02131198 27.80908513 31.97215567 81.33429413 38.14355469 115.44042969 C40.3800005 127.74239317 42.67801706 139.93842971 46 152 C55.87036102 143.21161587 59.90323069 125.86249231 64.53488159 113.80838013 C71.63086675 95.36453023 78.87319699 77.01853246 87 59 C87.4645459 57.9692334 87.9290918 56.9384668 88.40771484 55.87646484 C105.81920209 17.59039896 105.81920209 17.59039896 117 12 C118.99960012 11.960008 121.00047242 11.95653201 123 12 C139.47330706 42.08169116 116.69429633 105.2324166 109.73242188 136.47680664 C107.33815298 147.28755447 105.15460222 157.97879698 104 169 C113.23687842 164.50862311 119.96808086 157.10785326 127.1875 149.9375 C127.75726563 149.37248779 128.32703125 148.80747559 128.9140625 148.2253418 C131.77053005 145.35774194 134.5110054 142.43774464 137.14013672 139.35986328 C141.28004166 134.61031445 145.69311237 130.1629823 150.15234375 125.71484375 C151.44078941 124.424963 151.44078941 124.424963 152.75526428 123.10902405 C154.56177015 121.30184139 156.36952462 119.49590608 158.1784668 117.69116211 C160.9293681 114.94561607 163.67489221 112.19477454 166.41992188 109.44335938 C168.18457532 107.6793668 169.94953897 105.9156845 171.71484375 104.15234375 C172.52654526 103.33861801 173.33824677 102.52489227 174.17454529 101.68650818 C206.69803451 69.29485415 206.69803451 69.29485415 221.625 66.875 C225 67 225 67 228 69 C230.83194441 77.93151698 225.98342336 86.92403319 222.125 94.8125 C221.63668701 95.81804932 221.14837402 96.82359863 220.64526367 97.85961914 C209.35460611 120.71622838 194.57045488 141.64877568 180 162.5 C174.36890754 170.55853953 168.79730318 178.65353933 163.3125 186.8125 C162.65314453 187.78445312 161.99378906 188.75640625 161.31445312 189.7578125 C157.38212193 195.63800993 153.99011229 201.58788 151 208 C158.40935504 206.15253465 165.36108098 203.81953058 172.375 200.8125 C173.37394287 200.39105713 174.37288574 199.96961426 175.40209961 199.53540039 C182.73591107 196.42827958 190.03879093 193.25010004 197.34306335 190.07435608 C218.6221712 180.82372301 239.86452392 171.95136591 261.875 164.5625 C262.51670135 164.34636047 263.15840271 164.13022095 263.81954956 163.90753174 C273.54139345 160.64703412 282.57164841 157.7078595 292.875 157.75 C294.15117188 157.74484375 295.42734375 157.7396875 296.7421875 157.734375 C300 158 300 158 303 160 C303.59686312 163.3159062 303.63394155 165.75619064 302.07421875 168.81640625 C293.09032662 181.51046032 280.39062242 190.9162608 268 200 C266.57277723 201.06101038 265.14569288 202.12220698 263.71875 203.18359375 C247.28638564 215.31162359 229.97530292 226.12944974 212.73876953 237.06420898 C194.1949465 246.8330399 194.1949465 246.8330399 181 261 C184.77595051 262.25865017 188.28950538 262.12326997 192.22143555 262.09765625 C193.48099815 262.09546585 193.48099815 262.09546585 194.76600647 262.0932312 C196.59442924 262.08942134 198.4228483 262.08330072 200.25125694 262.07516479 C203.16912444 262.06235777 206.08694613 262.05587153 209.00483704 262.05102539 C216.27202689 262.03767053 223.5391748 262.01380096 230.80633545 261.98962402 C320.0352616 261.69759505 320.0352616 261.69759505 335 271 C337 273 337 273 337.4375 275.8125 C336.83342016 280.21365311 335.49567092 281.27337668 332 284 C319.08120749 292.12337866 302.57713904 295.67978408 287.875 299.125 C287.11938782 299.30476379 286.36377563 299.48452759 285.58526611 299.66973877 C265.17516526 304.49383114 244.51267424 308.1634051 223.88623047 311.92626953 C222.51769243 312.17677645 221.14916203 312.42732509 219.78063965 312.67791748 C217.2367846 313.14365477 214.69212168 313.60365675 212.14660645 314.06036377 C204.67860851 315.42182706 197.34261977 317.07683377 190 319 C188.66711743 319.33513123 187.33396292 319.66919521 186 320 C189.58637028 324.32520642 193.96677937 326.08000518 199 328.26171875 C199.88502197 328.65219894 200.77004395 329.04267914 201.68188477 329.44499207 C210.1705705 333.15146971 218.77872268 336.52893123 227.43121338 339.83071899 C314.78830123 373.21828372 314.78830123 373.21828372 325 389 C326.125 392.75 326.125 392.75 326 396 C323.17043259 399.86645723 319.44141046 399.95578676 314.96582031 400.66064453 C310.55929533 401.16484849 306.29953361 401.16819363 301.875 400.9375 C300.4043811 400.86196899 300.4043811 400.86196899 298.90405273 400.78491211 C270.06509923 398.97233039 241.73621192 392.19981599 213.56054688 386.18505859 C205.90075435 384.55069979 198.23563063 382.94548962 190.5625 381.375 C189.39243408 381.12758057 188.22236816 380.88016113 187.0168457 380.62524414 C180.87627242 379.3750758 175.26720167 378.74957554 169 379 C173.83873656 387.52396626 181.19528652 394.28158761 188.0625 401.1875 C188.62751221 401.75718506 189.19252441 402.32687012 189.7746582 402.91381836 C192.64659396 405.7750179 195.57175782 408.5196846 198.65380859 411.15380859 C203.32103423 415.22188847 207.69551697 419.55150242 212.06640625 423.93359375 C213.32299294 425.18874535 213.32299294 425.18874535 214.60496521 426.46925354 C216.36506935 428.22868104 218.12392677 429.98935653 219.8815918 431.7512207 C222.55470972 434.42969411 225.23312251 437.10278873 227.91210938 439.77539062 C229.63052903 441.49447115 231.34863842 443.21386189 233.06640625 444.93359375 C234.25418419 446.11833534 234.25418419 446.11833534 235.46595764 447.32701111 C240.17814834 452.05888953 244.66628789 456.91987351 249 462 C249.84304688 462.97324219 250.68609375 463.94648438 251.5546875 464.94921875 C269.78605949 486.4646931 269.78605949 486.4646931 271 496 C270.592019 498.26054776 270.02810793 499.94378414 269 502 C256.11191322 505.77212296 240.20533143 494.87861595 229.2109375 488.94140625 C219.85943648 483.75622159 210.93459354 477.86426822 202 472 C201.32018066 471.55688477 200.64036133 471.11376953 199.93994141 470.65722656 C186.95906604 462.18980668 174.32198738 453.20615503 161.61572266 444.33544922 C146.51826724 433.39408222 146.51826724 433.39408222 130 425 C131.91228925 434.04636189 134.96862007 442.14436044 138.75 450.5625 C139.32330315 451.86071735 139.89537313 453.15947987 140.46630859 454.45874023 C141.67749937 457.21363372 142.89243339 459.96682417 144.11035156 462.71875 C179.95304692 543.81418359 179.95304692 543.81418359 180.25 567.125 C180.27578125 568.34445312 180.3015625 569.56390625 180.328125 570.8203125 C180 574 180 574 178.65234375 575.89453125 C175.8843647 577.7463943 174.27157156 577.55554989 171 577 C166.03818816 574.08128715 161.9520095 570.14960997 158 566 C157.14341797 565.19175781 157.14341797 565.19175781 156.26953125 564.3671875 C150.09910211 558.48003156 145.05533967 551.83433437 140 545 C139.30293945 544.06945801 139.30293945 544.06945801 138.59179688 543.12011719 C124.91424203 524.83121983 112.70463466 505.47643409 100.5 486.1875 C96.39892827 479.71097316 92.25059138 473.27529906 87.9375 466.9375 C87.50824219 466.30030029 87.07898438 465.66310059 86.63671875 465.0065918 C82.20288438 458.56498655 82.20288438 458.56498655 76 454 C76.00222061 454.98351944 76.00444122 455.96703888 76.00672913 456.98036194 C76.02730093 466.40375121 76.04213181 475.82713574 76.05181217 485.25054264 C76.05695671 490.09127322 76.06389387 494.9319852 76.07543945 499.77270508 C76.11835974 518.30316479 76.15674553 536.82821077 75.58203125 555.3515625 C75.54618423 556.54100967 75.51033722 557.73045685 75.47340393 558.95594788 C73.99669289 600.03528054 73.99669289 600.03528054 65 611 C62 612 62 612 59.4921875 611.27734375 C50.85324673 606.84954809 47.72144103 593.66206777 44.9296875 585.02880859 C37.25323532 560.01986275 32.79023446 534.19167224 28.02539062 508.51269531 C26.70854657 501.41965241 25.36198592 494.33246901 23.99688721 487.24856567 C23.64092948 485.39542979 23.28983283 483.54136216 22.93896484 481.68725586 C21.53823628 474.38841819 19.8799851 467.19033263 18 460 C13.05882971 464.19826706 11.10327014 468.65842084 8.75 474.625 C8.3387085 475.63699463 7.92741699 476.64898926 7.50366211 477.69165039 C4.23697953 485.77521658 1.06986181 493.89884631 -2.12193298 502.01219177 C-3.22688671 504.82072049 -4.3321604 507.62912313 -5.4375 510.4375 C-5.99043228 511.84320755 -5.99043228 511.84320755 -6.55453491 513.27731323 C-14.54031602 533.56035294 -22.80161693 553.70968584 -33 573 C-33.35271973 573.67885254 -33.70543945 574.35770508 -34.06884766 575.05712891 C-45.45190537 596.84411056 -45.45190537 596.84411056 -53.12109375 599.82421875 C-55.0625 600.125 -55.0625 600.125 -58 600 C-68.18001602 586.20772024 -62.33275837 562.81777654 -60 547 C-56.24064492 522.75487339 -50.91130734 498.7716873 -45.64453125 474.8203125 C-45.29405228 473.22261269 -45.29405228 473.22261269 -44.93649292 471.59263611 C-44.49733946 469.59401293 -44.05586336 467.59589809 -43.61160278 465.59840393 C-41.52490675 456.17325725 -41.52490675 456.17325725 -40.9375 446.5625 C-40.958125 445.386875 -40.97875 444.21125 -41 443 C-46.27097412 445.75822214 -50.19933898 448.77512033 -54.34375 453.015625 C-54.91653687 453.59028503 -55.48932373 454.16494507 -56.07946777 454.75701904 C-57.2829183 455.96715221 -58.48278601 457.18085806 -59.67919922 458.39794922 C-61.48811049 460.23790643 -63.30736402 462.0670861 -65.12890625 463.89453125 C-66.30530965 465.08011215 -67.48111059 466.26629122 -68.65625 467.453125 C-69.45500549 468.25825531 -69.45500549 468.25825531 -70.26989746 469.07965088 C-73.09161303 471.95375875 -75.79950251 474.89094031 -78.43383789 477.93823242 C-81.93150891 481.97118074 -85.622652 485.7674428 -89.40234375 489.53515625 C-90.08373917 490.21750839 -90.76513458 490.89986053 -91.46717834 491.60289001 C-92.89705741 493.03344437 -94.32817911 494.46275767 -95.76049805 495.89086914 C-97.93197711 498.05699074 -100.09806325 500.22840174 -102.26367188 502.40039062 C-103.66374202 503.79979987 -105.06412238 505.19889884 -106.46484375 506.59765625 C-107.10155502 507.23639175 -107.7382663 507.87512726 -108.39427185 508.53321838 C-112.20174534 512.32125474 -116.12023616 515.92897329 -120.18760681 519.43678284 C-121.92645282 520.93656442 -123.64215844 522.45901223 -125.3515625 523.9921875 C-134.82417211 532.38323369 -145.49482894 541.75791861 -158 545 C-160.24870002 544.58731722 -161.95264234 544.02367883 -164 543 C-167.18922265 532.97672882 -160.9112143 522.12734828 -156.38110352 513.3215332 C-155.26709533 511.20711068 -154.13623688 509.10255093 -153 507 C-152.65211426 506.34483398 -152.30422852 505.68966797 -151.94580078 505.01464844 C-139.0783849 480.99939811 -122.74632878 458.57260577 -107.05078125 436.34375 C-95.96588337 420.79991091 -95.96588337 420.79991091 -87 404 C-95.21741002 405.81676511 -102.73993059 408.30736582 -110.4375 411.6875 C-111.52804688 412.15663818 -112.61859375 412.62577637 -113.7421875 413.10913086 C-117.49958317 414.72859953 -121.25054078 416.36226906 -125 418 C-212.9365168 456.39338033 -212.9365168 456.39338033 -236 454 C-236.99 453.34 -237.98 452.68 -239 452 C-239.61085592 447.46221314 -239.25168907 444.40825206 -236.4453125 440.71875 C-235.72988281 439.86796875 -235.72988281 439.86796875 -235 439 C-234.37867188 438.2471875 -233.75734375 437.494375 -233.1171875 436.71875 C-227.64082067 430.35909819 -221.64260812 425.09424867 -215 420 C-213.98147949 419.20964355 -213.98147949 419.20964355 -212.94238281 418.40332031 C-199.40263811 407.92340492 -185.33675827 398.35017076 -171 389 C-170.22027832 388.48985352 -169.44055664 387.97970703 -168.63720703 387.45410156 C-161.9577804 383.08753753 -155.24450356 378.77808454 -148.48828125 374.53125 C-130.74538045 364.04492194 -130.74538045 364.04492194 -116 350 C-116.56263707 349.99761165 -117.12527414 349.99522329 -117.70496082 349.99276257 C-131.53420159 349.93306032 -145.36327409 349.85699501 -159.19233418 349.76428509 C-165.88057054 349.71973298 -172.56874275 349.68059304 -179.25708008 349.65356445 C-185.73469504 349.62718897 -192.21208954 349.58655686 -198.68956566 349.53681374 C-201.13733321 349.52037285 -203.58513869 349.5087192 -206.03295326 349.50238609 C-218.962845 349.46561298 -231.73526401 349.03742357 -244.59838867 347.65551758 C-245.69606977 347.53977481 -246.79375086 347.42403204 -247.92469501 347.30478191 C-256.79673801 346.25662031 -265.99551594 344.92687112 -273 339 C-274.0625 337.0625 -274.0625 337.0625 -274 335 C-269.98744025 326.98932571 -261.43631289 323.82642893 -253.32617188 321.03613281 C-252.39353516 320.73545898 -251.46089844 320.43478516 -250.5 320.125 C-249.45908203 319.78823242 -248.41816406 319.45146484 -247.34570312 319.10449219 C-219.34992184 310.32005994 -190.3395901 305.47146462 -161.52734375 300.21191406 C-148.27124522 297.78756202 -135.06141714 295.34019353 -122 292 C-125.1082263 288.66963396 -127.69775753 286.34308936 -131.91015625 284.59765625 C-132.88114258 284.1898291 -133.85212891 283.78200195 -134.85253906 283.36181641 C-135.91182617 282.93304199 -136.97111328 282.50426758 -138.0625 282.0625 C-139.19010742 281.59505371 -140.31771484 281.12760742 -141.47949219 280.64599609 C-151.94018279 276.34617715 -162.50066405 272.30209066 -173.05435181 268.23751831 C-194.08027449 260.12932651 -215.10551371 251.63232985 -235 241 C-235.67160156 240.65018066 -236.34320313 240.30036133 -237.03515625 239.93994141 C-257.96709803 229.00656758 -257.96709803 229.00656758 -262 221.01953125 C-262.4375 219.1875 -262.4375 219.1875 -262 216 C-258.71562604 212.21799362 -255.8177078 211.60939979 -251 211 C-212.96223886 208.74462534 -172.96078745 220.44754048 -136.08862305 228.35546875 C-134.99865524 228.5891214 -133.90868744 228.82277405 -132.78569031 229.06350708 C-130.73597895 229.50363212 -128.68657148 229.94517569 -126.63752747 230.38839722 C-117.71604038 232.41996394 -117.71604038 232.41996394 -108.625 233.0625 C-106.830625 233.0315625 -106.830625 233.0315625 -105 233 C-107.71589145 227.83057512 -110.63235482 223.94120125 -114.796875 219.875 C-115.34933899 219.32440918 -115.90180298 218.77381836 -116.4710083 218.20654297 C-117.63406241 217.05016907 -118.80068775 215.89737689 -119.97070312 214.74804688 C-121.73823286 213.01156048 -123.49497877 211.26474369 -125.25 209.515625 C-126.39000823 208.38479455 -127.53061444 207.25456655 -128.671875 206.125 C-129.18675476 205.61437012 -129.70163452 205.10374023 -130.2321167 204.57763672 C-133.04212525 201.82087466 -135.91775863 199.18041114 -138.8972168 196.60717773 C-143.09933056 192.96103383 -147.04573387 189.09876045 -150.97265625 185.16015625 C-151.69940048 184.43436874 -152.42614471 183.70858124 -153.1749115 182.96080017 C-154.69962296 181.43676444 -156.2230915 179.91148431 -157.74536133 178.38500977 C-160.05633891 176.06867537 -162.37260771 173.75772922 -164.68945312 171.44726562 C-166.1800082 169.95604966 -167.670253 168.46452347 -169.16015625 166.97265625 C-169.84263931 166.29219742 -170.52512238 165.61173859 -171.22828674 164.91065979 C-175.68397701 160.43350557 -179.88311335 155.78891215 -184 151 C-184.92350953 149.95487156 -185.84793514 148.91055162 -186.7734375 147.8671875 C-207.18247245 124.39373288 -207.18247245 124.39373288 -206.9375 113.125 C-206 111 -206 111 -204.20849609 109.85449219 C-198.18750021 107.52490059 -191.01267732 110.34417029 -185.375 112.75 C-184.65248047 113.05671631 -183.92996094 113.36343262 -183.18554688 113.67944336 C-152.08193292 127.36097195 -123.7566595 148.89125317 -96.19140625 168.54003906 C-86.47935394 175.44738824 -76.68255153 181.68725669 -66 187 C-67.88622056 178.23114391 -70.7404154 170.31003501 -74.375 162.125 C-75.17766034 160.2827398 -75.9803147 158.44047698 -76.78266907 156.5980835 C-77.90076778 154.03673675 -79.0272133 151.47910031 -80.15386963 148.92150879 C-118.4789165 61.88774081 -118.4789165 61.88774081 -116 38 C-115.34 37.01 -114.68 36.02 -114 35 C-109.46221314 34.38914408 -106.40825206 34.74831093 -102.71875 37.5546875 C-102.1515625 38.03164063 -101.584375 38.50859375 -101 39 C-100.2471875 39.62132812 -99.494375 40.24265625 -98.71875 40.8828125 C-92.35490495 46.36279018 -87.10933004 52.35453152 -82 59 C-81.34741211 59.84014648 -81.34741211 59.84014648 -80.68164062 60.69726562 C-65.3708295 80.456634 -51.76226137 101.52232233 -38.4296875 122.6484375 C-27.64853063 141.49092517 -27.64853063 141.49092517 -13 157 C-11.82088198 153.46264594 -11.87553371 150.28661754 -11.90234375 146.6081543 C-11.90453415 145.48009117 -11.90453415 145.48009117 -11.9067688 144.32923889 C-11.91057868 142.69071996 -11.91669931 141.05220517 -11.92483521 139.41370201 C-11.93767602 136.78822894 -11.94413826 134.16280703 -11.94897461 131.53730774 C-11.96231291 124.99056406 -11.98603184 118.44386643 -12.01037598 111.89715576 C-12.35782938 17.09051904 -12.35782938 17.09051904 -2 2 C-1.34 1.34 -0.68 0.68 0 0 Z M0 3 C-12.47354861 20.63501701 -9.31782991 51.82645383 -9.11976433 72.42500877 C-9.08878397 75.71812001 -9.07257081 79.01104607 -9.05970764 82.30427551 C-9.02056027 91.64334058 -8.95428549 100.98217255 -8.88354492 110.32104492 C-8.84083215 116.08924475 -8.81275511 121.85737377 -8.79324532 127.62569618 C-8.77763289 130.85810473 -8.74470843 134.09004429 -8.71141052 137.3223114 C-8.70371103 139.29975035 -8.69691235 141.27719309 -8.69116211 143.25463867 C-8.67723419 144.1423999 -8.66330627 145.03016113 -8.6489563 145.94482422 C-8.65705529 151.3956432 -9.50894354 155.13645992 -12 160 C-22.73278962 156.47772712 -28.83960459 142.28773187 -34.625 133.16748047 C-41.78996353 121.87299428 -49.14763194 110.70477063 -56.54745483 99.56323242 C-57.4982196 98.13092289 -58.44783019 96.69784638 -59.39614868 95.26391602 C-80.12648085 62.82475579 -80.12648085 62.82475579 -108 37 C-111.31086259 37.28274138 -111.31086259 37.28274138 -114 39 C-115.76684252 71.96994819 -94.97977627 108.37631217 -82 138 C-79.89876878 142.80059607 -77.8007911 147.60258628 -75.70770264 152.40673828 C-74.90929172 154.23401838 -74.1044465 156.05848301 -73.29931641 157.8828125 C-70.75002188 163.71262683 -68.32845302 169.57165055 -66.1328125 175.54296875 C-65.7217627 176.66082764 -65.31071289 177.77868652 -64.88720703 178.93041992 C-64.04986692 181.82746924 -63.72884559 184.01020146 -64 187 C-64.33 187.33 -64.66 187.66 -65 188 C-70.35934317 187.64714884 -74.21800398 186.14256005 -78.6875 183.3125 C-79.32558594 182.91877197 -79.96367187 182.52504395 -80.62109375 182.11938477 C-88.72008579 177.04109264 -96.48511666 171.46113589 -104.27734375 165.9296875 C-149.88954443 129.23109785 -149.88954443 129.23109785 -203 112 C-204.29194875 113.08221601 -204.29194875 113.08221601 -204.28125 115.671875 C-203.93811775 119.73227334 -202.69029101 121.82977635 -200.5 125.25 C-200.1383374 125.81501221 -199.7766748 126.38002441 -199.40405273 126.9621582 C-194.13112706 135.05492798 -187.88197535 142.26884357 -181.37109375 149.3828125 C-180.09534585 150.79096916 -178.82497237 152.20457955 -177.58972168 153.64839172 C-172.64448907 159.41915671 -167.35062855 164.79426341 -161.97265625 170.16015625 C-161.01518975 171.1182986 -160.05787155 172.07658916 -159.10069275 173.03501892 C-157.10626253 175.03091287 -155.11006259 177.02501452 -153.11254883 179.01782227 C-150.57325601 181.55141863 -148.03848097 184.08947983 -145.50502872 186.62891483 C-143.53267816 188.60490703 -141.55791737 190.57847679 -139.58245659 192.55135918 C-138.19873372 193.93410599 -136.81699686 195.3188393 -135.43531799 196.70362854 C-130.97720936 201.14535332 -126.46864873 205.4580415 -121.68348694 209.54699707 C-103.51052784 225.23191996 -103.51052784 225.23191996 -102 235 C-118.5547645 236.21132423 -134.36559431 231.73922509 -150.38671875 228.09765625 C-153.38249814 227.41787594 -156.37862561 226.73965264 -159.375 226.0625 C-160.12939362 225.89167908 -160.88378723 225.72085815 -161.66104126 225.54486084 C-173.3471703 222.9097183 -185.06336673 220.62270375 -196.875 218.625 C-197.94871857 218.44313644 -197.94871857 218.44313644 -199.04412842 218.25759888 C-203.69165797 217.47552581 -208.3443891 216.73235673 -213 216 C-214.18803223 215.80277344 -215.37606445 215.60554687 -216.60009766 215.40234375 C-224.98210552 214.08090352 -233.145894 213.69535485 -241.625 213.75 C-242.86378906 213.74226562 -244.10257813 213.73453125 -245.37890625 213.7265625 C-246.56613281 213.72914063 -247.75335938 213.73171875 -248.9765625 213.734375 C-250.03955566 213.73663086 -251.10254883 213.73888672 -252.19775391 213.74121094 C-254.97861538 213.99802512 -256.63304346 214.56630061 -259 216 C-259.59197613 218.19914497 -259.59197613 218.19914497 -259 221 C-241.93840832 244.94310033 -197.84536887 255.95668726 -171.484375 266.34765625 C-170.30400665 266.81328476 -169.12363831 267.27891327 -167.90750122 267.75865173 C-161.98938945 270.09099008 -156.06736728 272.41250295 -150.13818359 274.71655273 C-147.9280197 275.58176583 -145.71789435 276.44707736 -143.5078125 277.3125 C-142.50997742 277.69644424 -141.51214233 278.08038849 -140.48406982 278.47596741 C-126.49321469 283.97473556 -126.49321469 283.97473556 -121 288 C-120.19729614 290.18481445 -120.19729614 290.18481445 -120 292 C-125.6331731 295.64227083 -130.83043848 297.1832499 -137.375 298.5 C-138.37740723 298.71011719 -139.37981445 298.92023438 -140.41259766 299.13671875 C-148.73881228 300.84042411 -157.1091399 302.19245596 -165.50805664 303.48046875 C-176.0980361 305.12092719 -186.57492856 307.23551592 -197.06787109 309.40185547 C-199.87164078 309.97381515 -202.67850141 310.52482947 -205.48828125 311.06640625 C-220.29834128 313.92485335 -234.57697885 317.75928924 -248.9375 322.375 C-250.09967041 322.73811279 -251.26184082 323.10122559 -252.45922852 323.4753418 C-258.92662135 325.60000201 -265.32437636 327.81217071 -270 333 C-270.84690856 335.01544312 -270.84690856 335.01544312 -271 337 C-266.84278324 342.78454832 -257.437894 343.3888665 -250.9336853 344.53463936 C-246.41333799 345.25168686 -241.89120683 345.72548848 -237.33203125 346.11499023 C-236.34394974 346.19942351 -235.35586823 346.28385679 -234.33784485 346.37084866 C-223.12028898 347.25146448 -211.93202536 347.23292346 -200.6875 347.16015625 C-198.45027938 347.15386157 -196.21305555 347.14862964 -193.97583008 347.14439392 C-188.16563509 347.13127093 -182.3555511 347.10690812 -176.54541016 347.07904053 C-167.19401445 347.03541313 -157.84258577 347.00613864 -148.49111938 346.9829998 C-145.24558482 346.97283811 -142.00013916 346.95580103 -138.75463867 346.93800354 C-136.76741614 346.93117651 -134.78019285 346.92456775 -132.79296875 346.91821289 C-131.4542572 346.90810684 -131.4542572 346.90810684 -130.08850098 346.89779663 C-124.21447899 346.88712961 -118.62374477 347.12541841 -113 349 C-117.14146023 360.83274351 -132.93111367 367.62941945 -143 374 C-156.38800825 382.47749498 -169.6924501 391.05138403 -182.8125 399.9375 C-183.38819733 400.32615234 -183.96389465 400.71480469 -184.55703735 401.11523438 C-213.71625478 420.38270739 -213.71625478 420.38270739 -237 446 C-236.6878236 448.64632287 -236.6878236 448.64632287 -236 451 C-202.74113243 452.72028625 -169.40581893 434.58688698 -139.64453125 421.44140625 C-138.74532455 421.04464188 -137.84611786 420.6478775 -136.91966248 420.23908997 C-132.47469915 418.2762852 -128.03369749 416.30531228 -123.59936523 414.31860352 C-115.69809693 410.79589138 -107.77755607 407.40630745 -99.640625 404.4609375 C-98.95611267 404.20784821 -98.27160034 403.95475891 -97.56634521 403.69400024 C-93.58323719 402.29965764 -90.21291814 401.74311475 -86 402 C-86.42507833 407.95109667 -87.68548037 412.07071397 -90.9375 417.125 C-91.34154053 417.77404297 -91.74558105 418.42308594 -92.16186523 419.09179688 C-95.59687512 424.53701185 -99.30727046 429.77920698 -103.09375 434.984375 C-141.70047897 481.96403318 -141.70047897 481.96403318 -162.125 536.625 C-162.12757813 537.42164063 -162.13015625 538.21828125 -162.1328125 539.0390625 C-162.21570074 541.00353536 -162.21570074 541.00353536 -161 542 C-151.76716638 542.95697984 -143.41258712 535.29289594 -136.5625 529.75 C-135.71220215 529.02272705 -134.8619043 528.2954541 -133.98583984 527.54614258 C-132.0734931 525.91540961 -130.14626011 524.30187814 -128.20068359 522.7109375 C-116.61512462 513.15838987 -106.15625308 502.42294344 -95.58642578 491.78204346 C-93.54519446 489.72993887 -91.49833979 487.68349094 -89.45136356 485.63711929 C-87.4546049 483.64008692 -85.46047545 481.64044624 -83.4671917 479.63994598 C-82.077404 478.24551394 -80.68619262 476.85250129 -79.29493713 475.45953369 C-74.8722779 471.00388178 -70.57237533 466.50015094 -66.49545288 461.72470093 C-51.75478615 444.72433808 -51.75478615 444.72433808 -44 441 C-42.33368258 440.96588224 -40.66624931 440.96270354 -39 441 C-38.75563142 449.47059557 -39.26634057 457.27430282 -41 465.5625 C-41.21857666 466.65691406 -41.43715332 467.75132812 -41.66235352 468.87890625 C-43.44998305 477.68853949 -45.4396001 486.45157197 -47.42181396 495.21881104 C-47.59199036 495.97160339 -47.76216675 496.72439575 -47.9375 497.5 C-48.10832092 498.25504822 -48.27914185 499.01009644 -48.45513916 499.7880249 C-51.0305233 511.21020406 -53.34045416 522.65661577 -55.375 534.1875 C-55.55686356 535.20626221 -55.55686356 535.20626221 -55.74240112 536.24560547 C-58.26383308 550.45388429 -60.3711658 564.66588136 -60.25 579.125 C-60.25773438 580.08664062 -60.26546875 581.04828125 -60.2734375 582.0390625 C-60.25865713 587.41911845 -59.77519735 591.91391871 -58 597 C-55.43149987 597.54483336 -53.6950021 597.449811 -51.4609375 596.00390625 C-30.15726398 576.56809036 -20.3454793 541.29562374 -10 515 C-9.56139648 513.88979492 -9.12279297 512.77958984 -8.67089844 511.63574219 C-5.45207037 503.48357259 -2.23398409 495.33121734 0.82421875 487.1171875 C3.60123059 479.70333019 6.55156359 472.47752581 10.1875 465.4375 C10.50855713 464.79941406 10.82961426 464.16132813 11.16040039 463.50390625 C13.46617107 459.21520852 13.46617107 459.21520852 16.23828125 458.09765625 C16.81964844 458.06542969 17.40101563 458.03320312 18 458 C25.97564902 467.41757427 26.26547083 484.0651178 28.13964844 495.72680664 C29.43257979 503.73491265 30.88365461 511.66710339 32.62548828 519.58862305 C33.53138944 523.72276834 34.34403942 527.85165499 35.03686523 532.02685547 C38.03235369 550.06034481 42.31909172 567.69332629 48 585.0625 C48.4029126 586.31635498 48.8058252 587.57020996 49.22094727 588.86206055 C51.51452795 595.66915763 53.89950632 602.73563177 59 608 C61.09419845 608.77155327 61.09419845 608.77155327 63 609 C81.95221358 587.98603934 73.16669185 532.82652627 73 506.5 C72.95248796 498.88885147 72.91200708 491.27778125 72.88812256 483.66651917 C72.8752649 480.65577789 72.85029862 477.64529943 72.82470703 474.63464355 C72.81744521 472.79484272 72.81074134 470.95503958 72.8046875 469.11523438 C72.79435486 468.2914328 72.78402222 467.46763123 72.77337646 466.61886597 C72.77248169 461.71582944 73.19733166 457.59036349 75 453 C75.99 452.67 76.98 452.34 78 452 C83.59110511 455.20497465 87.1871036 460.68871449 90.5625 466 C91.07296875 466.78342773 91.5834375 467.56685547 92.109375 468.37402344 C96.54080077 475.20088698 100.86984522 482.09453437 105.22265625 488.97167969 C120.56802277 513.12734593 136.11818268 537.43385324 155 559 C155.62261719 559.75667969 156.24523437 560.51335938 156.88671875 561.29296875 C161.19263513 566.48215003 166.09380176 571.66708106 172 575 C174.71391013 574.97604298 174.71391013 574.97604298 177 574 C182.63296804 562.73406391 173.64779063 543.72479278 170.0402832 532.86352539 C162.67603017 511.23704398 153.52260165 490.35728903 144.25 469.5 C140.03826456 460.02425641 135.86203902 450.55107271 132.125 440.875 C131.80950195 440.07126953 131.49400391 439.26753906 131.16894531 438.43945312 C129.35196004 433.60112871 128.45555298 429.15125297 128 424 C134.6283004 423.29859255 138.2735129 425.43369654 143.75 429 C144.48476563 429.45761719 145.21953125 429.91523438 145.9765625 430.38671875 C151.21982263 433.69777402 156.22561618 437.30090459 161.22314453 440.96923828 C174.08092484 450.3723521 187.29421171 459.28449498 200.625 468 C201.66599854 468.68118896 202.70699707 469.36237793 203.77954102 470.06420898 C233.1436137 491.23810599 233.1436137 491.23810599 267 500 C268.29821946 498.91477476 268.29821946 498.91477476 268.25 496.296875 C267.52861596 486.78362296 258.95236819 478.02234013 253 471 C252.09688232 469.91210035 251.19458226 468.82352159 250.29296875 467.734375 C245.95836837 462.52480542 241.60465639 457.40414838 236.70703125 452.70800781 C235.02379492 451.02380853 233.48948508 449.27608876 231.94921875 447.4609375 C227.39008203 442.21762993 222.48414056 437.33815275 217.5625 432.4375 C216.65951172 431.53064453 215.75652344 430.62378906 214.82617188 429.68945312 C213.93607422 428.80064453 213.04597656 427.91183594 212.12890625 426.99609375 C211.33556885 426.20388428 210.54223145 425.4116748 209.72485352 424.59545898 C207.56817846 422.5411975 205.38466365 420.57934528 203.1340332 418.63183594 C199.17963433 415.19626913 195.43308378 411.59427571 191.7265625 407.89453125 C191.07674408 407.24804123 190.42692566 406.60155121 189.75741577 405.93547058 C188.39996651 404.58303877 187.04382669 403.22929145 185.68896484 401.87426758 C183.61444577 399.801957 181.53202447 397.73780595 179.44921875 395.67382812 C178.1245117 394.35205171 176.80027583 393.02980284 175.4765625 391.70703125 C174.85576813 391.09342239 174.23497375 390.47981354 173.59536743 389.84761047 C173.02071747 389.26988388 172.4460675 388.69215729 171.85400391 388.09692383 C171.34962799 387.59397293 170.84525208 387.09102203 170.32559204 386.5728302 C167.56839586 383.30138522 167 381.34717964 167 377 C174.36322368 376.689364 181.19437122 376.85941277 188.43359375 378.2734375 C189.11876572 378.40670944 189.80393768 378.53998138 190.50987244 378.67729187 C197.6421716 380.08568923 204.73124064 381.68667294 211.81881714 383.3026123 C267.14686424 399.46560592 267.14686424 399.46560592 322 396 C322.95020416 393.760165 322.95020416 393.760165 323 391 C321.38682835 388.95664925 319.99757831 387.61549312 318 386 C317.39462402 385.48840332 316.78924805 384.97680664 316.16552734 384.44970703 C310.03625615 379.46310813 303.52697274 375.82527101 296.5 372.25 C295.46230469 371.70601563 294.42460938 371.16203125 293.35546875 370.6015625 C271.17686307 359.18648696 247.85479308 350.27785978 224.60864258 341.32324219 C187.52417378 327.01415393 187.52417378 327.01415393 184 320 C195.91484721 309.61119233 222.80123848 309.17003732 237.88549805 306.68481445 C290.46488866 300.83879956 290.46488866 300.83879956 335 278 C335.109988 275.40379992 335.109988 275.40379992 334 273 C321.2023954 264.2322794 296.83703642 264.80513615 281.94824219 264.93408203 C280.90449432 264.93875488 279.86074646 264.94342773 278.78536987 264.94824219 C276.54015776 264.95866948 274.29495501 264.97130612 272.04976654 264.98596573 C268.49323874 265.00814702 264.93676539 265.02212163 261.38018799 265.03366089 C251.27551898 265.0671161 241.17094117 265.10903487 231.06640625 265.17138672 C224.86809772 265.20905214 218.6698796 265.23205899 212.47147369 265.24569321 C210.11597407 265.25373552 207.76048649 265.26732745 205.40505219 265.28662491 C202.1146475 265.31313249 198.82467798 265.32099925 195.53417969 265.32470703 C194.08303268 265.34324234 194.08303268 265.34324234 192.60256958 265.3621521 C186.95212952 265.34537941 183.02798654 264.61820976 178 262 C178.92105589 256.1794385 183.55524597 253.4185981 188 250 C193.53036043 246.12796987 199.28302709 242.58700901 205 239 C208.52391829 236.77568759 212.04406732 234.54547834 215.5625 232.3125 C216.47733154 231.73193848 217.39216309 231.15137695 218.3347168 230.55322266 C233.57963214 220.84484747 248.75823553 210.94438783 263.32080078 200.23046875 C265.16230557 198.88106716 267.01690674 197.55066294 268.87109375 196.21875 C275.96458367 191.07167059 282.73004436 185.6807242 289.1875 179.75 C289.79907959 179.19602539 290.41065918 178.64205078 291.04077148 178.07128906 C295.02869929 174.31729153 298.9498339 170.15750079 301 165 C300.61288064 162.20552665 300.61288064 162.20552665 299 160 C289.25451711 158.92500098 280.24128333 161.21810751 271 164 C269.74026367 164.37874268 269.74026367 164.37874268 268.45507812 164.76513672 C244.26333032 172.18341233 220.96599782 182.20876735 197.92456055 192.59594727 C160.99935413 209.18031728 160.99935413 209.18031728 153.8125 209.0625 C152.554375 209.041875 151.29625 209.02125 150 209 C151.08567881 197.23600084 159.27442516 187.34793047 166.05859375 178.05078125 C186.57821621 149.91915574 207.26612026 120.66367426 222 89 C222.680625 87.54980469 222.680625 87.54980469 223.375 86.0703125 C225.67942274 80.80534667 226.52261323 76.74874549 226 71 C224.91239037 69.69737811 224.91239037 69.69737811 222.2734375 69.76953125 C205.25161153 70.9679653 185.01566207 94.77672648 173.74560547 106.28637695 C172.00018801 107.99981543 170.19179595 109.58773465 168.33203125 111.17578125 C163.84470043 115.080716 159.63098218 119.22124778 155.4375 123.4375 C154.36338867 124.50581055 154.36338867 124.50581055 153.26757812 125.59570312 C150.02547832 128.84370302 146.8637788 132.10874959 143.890625 135.60546875 C138.67228823 141.65563866 132.94827294 147.23772961 127.30151367 152.88378906 C125.3016301 154.88588191 123.30991231 156.89587424 121.31835938 158.90625 C120.04215584 160.18538407 118.76547992 161.46404706 117.48828125 162.7421875 C116.60067863 163.64056839 116.60067863 163.64056839 115.69514465 164.55709839 C115.13743881 165.1117276 114.57973297 165.66635681 114.00512695 166.23779297 C113.51994095 166.72440399 113.03475494 167.21101501 112.53486633 167.71237183 C109.27940239 170.44344163 107.31742889 171 103 171 C102.69612002 161.7217045 103.37265692 153.34974684 105.4375 144.3125 C105.84248183 142.44186963 106.24741729 140.57122894 106.65116882 138.70033264 C107.09835854 136.63803044 107.55188819 134.57720547 108.00683594 132.51660156 C109.90241312 123.91630651 111.73988457 115.30351742 113.5625 106.6875 C113.8533699 105.31377228 113.8533699 105.31377228 114.15011597 103.91229248 C119.14074491 80.2398594 124.11601544 56.08045327 124.25 31.8125 C124.270625 30.86697266 124.29125 29.92144531 124.3125 28.94726562 C124.34475761 23.16105682 123.70024681 19.13757485 121 14 C115.78316384 14.67543364 114.09220486 16.52577 110.8671875 20.484375 C92.04772858 45.83946192 81.08549634 77.63983294 69.76953125 106.86328125 C69.41698273 107.77275009 69.0644342 108.68221893 68.70120239 109.61924744 C66.99683284 114.02216537 65.30357346 118.42883349 63.62988281 122.84350586 C60.61603677 130.73994243 57.45378481 138.5263496 53.77734375 146.140625 C53.45850723 146.82139099 53.13967072 147.50215698 52.81117249 148.20355225 C50.52536285 152.78180148 50.52536285 152.78180148 47.76391602 153.92871094 C46.89077759 153.96399902 46.89077759 153.96399902 46 154 C43.17445103 149.83948152 41.80365253 145.57019612 40.5625 140.75 C40.3464209 139.91774902 40.1303418 139.08549805 39.90771484 138.22802734 C38.03877796 130.72055617 36.8135714 123.16314933 35.65380859 115.51953125 C31.03022107 85.30188813 25.40079634 54.8326645 15.875 25.75 C15.56248291 24.79182373 15.24996582 23.83364746 14.92797852 22.84643555 C11.23540256 11.81651922 11.23540256 11.81651922 4 3 C2.68 3 1.36 3 0 3 Z " fill="#090C00" transform="translate(274,0)"/>
<path d="M0 0 C0.66 0.33 1.32 0.66 2 1 C-1.35770298 4.54185488 -4.70737552 7.30656177 -8.8125 9.9375 C-12.48228376 12.33871653 -16.13749301 14.73650215 -19.6875 17.3125 C-20.31011719 17.76238281 -20.93273437 18.21226562 -21.57421875 18.67578125 C-23.28362208 20.05100084 -23.28362208 20.05100084 -24 23 C-20.87619227 24.04126924 -18.61482146 24.15552332 -15.33520508 24.20532227 C-14.17422806 24.22526749 -13.01325104 24.24521271 -11.8170929 24.26576233 C-10.56389755 24.28247482 -9.31070221 24.29918732 -8.01953125 24.31640625 C-6.73640549 24.33718735 -5.45327972 24.35796844 -4.13127136 24.37937927 C-0.72337185 24.43451906 2.68458741 24.48396389 6.09259033 24.53222656 C9.57154648 24.58250079 13.05041607 24.63815591 16.52929688 24.69335938 C23.35278951 24.80084189 30.17636036 24.90230877 37 25 C37 25.66 37 26.32 37 27 C24.95874822 27.93394751 12.90351546 28.16031361 0.83062744 28.23217773 C-0.88348751 28.24401571 -2.59757475 28.261067 -4.31158447 28.28344727 C-6.76518899 28.313625 -9.21810474 28.32339292 -11.671875 28.328125 C-12.77421982 28.34658478 -12.77421982 28.34658478 -13.89883423 28.36541748 C-19.05936105 28.34357445 -22.57140128 27.51783253 -27 25 C-28.10961914 23.01782227 -28.10961914 23.01782227 -28 21 C-23.99062189 14.6542284 -16.21166501 10.53444869 -10.0625 6.5625 C-9.09248047 5.92634766 -8.12246094 5.29019531 -7.12304688 4.63476562 C-4.75348099 3.08229142 -2.37920572 1.53764283 0 0 Z " fill="#111501" transform="translate(479,238)"/>
<path d="M0 0 C0.33 0 0.66 0 1 0 C3.18646403 27.00515685 3.22136229 53.9205809 3 81 C1.515 81.495 1.515 81.495 0 82 C-0.15357837 71.45626013 -0.30176013 60.91245977 -0.4429636 50.36854649 C-0.50869447 45.47311296 -0.57631674 40.5777205 -0.64819336 35.68237305 C-0.71742987 30.96217453 -0.78178723 26.24193287 -0.84269524 21.5216198 C-0.86685674 19.71658836 -0.89280614 17.91157998 -0.92053413 16.10659981 C-0.95893393 13.58746069 -0.99109805 11.0683161 -1.02172852 8.54907227 C-1.03467453 7.79525772 -1.04762054 7.04144318 -1.06095886 6.26478577 C-1.07904876 4.50983278 -1.04518348 2.7544645 -1 1 C-0.67 0.67 -0.34 0.34 0 0 Z " fill="#131701" transform="translate(263,72)"/>
<path d="M0 0 C0.33 0 0.66 0 1 0 C1.32417212 9.50904899 0.33418593 18.61304896 -1 28 C-1.99 28.33 -2.98 28.66 -4 29 C-2.28828829 2.28828829 -2.28828829 2.28828829 0 0 Z " fill="#0F1301" transform="translate(399,37)"/>
<path d="M0 0 C-0.33 0.99 -0.66 1.98 -1 3 C-3.765625 3.9140625 -3.765625 3.9140625 -7.25 4.625 C-8.38953125 4.86476562 -9.5290625 5.10453125 -10.703125 5.3515625 C-11.79109375 5.56554687 -12.8790625 5.77953125 -14 6 C-14.96421875 6.19335938 -15.9284375 6.38671875 -16.921875 6.5859375 C-17.60765625 6.72257813 -18.2934375 6.85921875 -19 7 C-18.67 6.01 -18.34 5.02 -18 4 C-14.98046875 2.83203125 -14.98046875 2.83203125 -11.1875 1.8125 C-9.94355469 1.46832031 -8.69960938 1.12414062 -7.41796875 0.76953125 C-4 0 -4 0 0 0 Z " fill="#0C0F01" transform="translate(559,159)"/>
<path d="M0 0 C1.31148244 3.93444732 0.33242737 5.35081977 -1.25 9.125 C-1.68828125 10.20007813 -2.1265625 11.27515625 -2.578125 12.3828125 C-4 15 -4 15 -7 16 C-3.60695187 3.60695187 -3.60695187 3.60695187 0 0 Z " fill="#070800" transform="translate(275,489)"/>
<path d="M0 0 C0.66 0.33 1.32 0.66 2 1 C1.67 7.6 1.34 14.2 1 21 C0.67 21 0.34 21 0 21 C-0.87346005 14.33986708 -1.40807542 7.72124218 -1 1 C-0.67 0.67 -0.34 0.34 0 0 Z " fill="#171B01" transform="translate(265,30)"/>
<path d="M0 0 C-1 2 -1 2 -3.58203125 2.88671875 C-4.64808594 3.15097656 -5.71414063 3.41523438 -6.8125 3.6875 C-7.87082031 3.95949219 -8.92914062 4.23148437 -10.01953125 4.51171875 C-12.83268294 4.97258895 -14.35965663 4.9525694 -17 4 C-14.35103165 1.35103165 -12.13454484 1.13670541 -8.5 0.3125 C-6.75203125 -0.09548828 -6.75203125 -0.09548828 -4.96875 -0.51171875 C-2 -1 -2 -1 0 0 Z " fill="#040500" transform="translate(571,295)"/>
<path d="M0 0 C-0.33 0.99 -0.66 1.98 -1 3 C-4.63 3.66 -8.26 4.32 -12 5 C-11.67 4.01 -11.34 3.02 -11 2 C-7.12137916 0.60955102 -4.13537997 0 0 0 Z " fill="#131701" transform="translate(53,313)"/>
<path d="M0 0 C0.33 0 0.66 0 1 0 C0.67 5.28 0.34 10.56 0 16 C-0.33 16 -0.66 16 -1 16 C-1.22384382 14.27277272 -1.42839969 12.54303993 -1.625 10.8125 C-1.74101562 9.84957031 -1.85703125 8.88664063 -1.9765625 7.89453125 C-2.00194942 4.75924677 -1.34359283 2.80513465 0 0 Z " fill="#111401" transform="translate(219,524)"/>
<path d="M0 0 C1.99954746 -0.04254356 4.00041636 -0.04080783 6 0 C7 1 7 1 7.0625 3.5625 C7.041875 4.366875 7.02125 5.17125 7 6 C6.34 5.67 5.68 5.34 5 5 C5 4.34 5 3.68 5 3 C3.02 3 1.04 3 -1 3 C-0.67 2.01 -0.34 1.02 0 0 Z " fill="#161C02" transform="translate(182,401)"/>
<path d="M0 0 C0.66 0 1.32 0 2 0 C1.34 3.96 0.68 7.92 0 12 C-2.79921583 7.80117625 -1.86558093 5.87872887 -1 1 C-0.67 0.67 -0.34 0.34 0 0 Z " fill="#101301" transform="translate(231,468)"/>
<path d="M0 0 C0.33 0.66 0.66 1.32 1 2 C0.328125 3.91015625 0.328125 3.91015625 -0.75 6.0625 C-1.09546875 6.77535156 -1.4409375 7.48820312 -1.796875 8.22265625 C-3 10 -3 10 -6 11 C-3.76687117 3.98159509 -3.76687117 3.98159509 -2 1 C-1.34 0.67 -0.68 0.34 0 0 Z " fill="#040500" transform="translate(496,91)"/>
<path d="M0 0 C1 3 1 3 0.3125 5.5625 C-1.19069719 8.35415192 -2.18672999 8.75666071 -5 10 C-4.55090939 8.51800098 -4.09043436 7.03944764 -3.625 5.5625 C-3.36976563 4.73878906 -3.11453125 3.91507812 -2.8515625 3.06640625 C-2 1 -2 1 0 0 Z " fill="#151901" transform="translate(278,481)"/>
<path d="M0 0 C0.66 0.33 1.32 0.66 2 1 C-0.68058098 4.57410797 -3.42589203 7.31941902 -7 10 C-6.42424336 6.64749299 -5.40693737 5.06181371 -2.9375 2.75 C-2.38964844 2.22921875 -1.84179688 1.7084375 -1.27734375 1.171875 C-0.64505859 0.59179688 -0.64505859 0.59179688 0 0 Z " fill="#181D02" transform="translate(458,252)"/>
<path d="M0 0 C1 3 1 3 0.25 5.125 C-1 7 -1 7 -4 8 C-2.25 2.25 -2.25 2.25 0 0 Z " fill="#060700" transform="translate(260,527)"/>
</svg>
