<?xml version="1.0" encoding="UTF-8"?>
<svg version="1.1" xmlns="http://www.w3.org/2000/svg" width="1440" height="612">
<path d="M0 0 C6.24574029 1.24914806 12.22824625 2.5148232 18.30200195 4.29638672 C19.4569291 4.62967956 19.4569291 4.62967956 20.6351881 4.96970558 C23.17069951 5.70246851 25.7044763 6.44104757 28.23828125 7.1796875 C30.05210153 7.70515198 31.86602832 8.23024893 33.68005371 8.75500488 C38.54709048 10.16401634 43.41265427 11.57805187 48.27795792 12.99303436 C53.38389833 14.47703553 58.49120938 15.95630439 63.59838867 17.43603516 C71.85406755 19.82859671 80.10899193 22.22374275 88.36328125 24.62109375 C98.53261194 27.57460804 108.70337702 30.52314106 118.875 33.46875 C121.74374601 34.29959952 124.61247794 35.13049761 127.48120117 35.96142578 C128.17331538 36.16189577 128.86542959 36.36236576 129.57851696 36.5689106 C137.2156147 38.78116227 144.85197979 40.99593907 152.48828125 43.2109375 C163.71453281 46.46721914 174.94105872 49.72255175 186.16796875 52.9765625 C186.88197657 53.18351116 187.59598438 53.39045982 188.3316288 53.60367966 C191.94319855 54.65045419 195.55477373 55.69721002 199.16635132 56.74395752 C205.64262213 58.62099181 212.11884513 60.49819106 218.59507179 62.37537766 C222.18837924 63.41692517 225.78168978 64.45846205 229.375 65.5 C230.81250001 65.91666662 232.25000001 66.33333328 233.6875 66.75 C234.3990625 66.95625 235.110625 67.1625 235.84375 67.375 C307 88 378.15625 108.625 520.46875286 149.87500095 C521.90624324 150.29166475 523.3437337 150.70832824 524.78122425 151.12499142 C528.37512225 152.16669953 531.9690187 153.20841296 535.56291199 154.25013733 C542.02989309 156.12464811 548.49688492 157.99912184 554.9639349 159.87339497 C558.55539136 160.91426807 562.14683871 161.95517261 565.73828125 162.99609375 C566.44947931 163.20222227 567.16067738 163.40835079 567.8934269 163.62072563 C575.82033489 165.91825661 583.74705269 168.21644129 591.67333984 170.51611328 C592.38942571 170.72386918 593.10551157 170.93162508 593.843297 171.14567661 C597.46261934 172.19576455 601.08190699 173.24597191 604.70115662 174.29631042 C611.86708647 176.37568435 619.03372348 178.45256806 626.2019043 180.52416992 C629.03828678 181.34410661 631.87462323 182.16420239 634.7109375 182.984375 C635.41225359 183.18712854 636.11356968 183.38988209 636.83613777 183.59877968 C645.78789559 186.18773696 654.73280182 188.79887714 663.67060757 191.43560886 C669.8345935 193.2540138 676.00127779 195.06304216 682.16990757 196.86563015 C686.53662372 198.14252092 690.89923944 199.43231924 695.25919342 200.73209953 C698.57156667 201.71521125 701.88970203 202.67827885 705.20703125 203.64453125 C706.390159 204.00174255 707.57328674 204.35895386 708.79226685 204.72698975 C714.82425579 206.46246058 719.82493643 207.64628066 726 206 C727.04341049 205.72592819 728.08682098 205.45185638 729.16184998 205.16947937 C733.17124292 204.06564114 737.15759117 202.89651648 741.14453125 201.71484375 C742.67535447 201.26618267 744.20634994 200.81810893 745.73750305 200.37057495 C749.03169392 199.40655544 752.32476315 198.43882677 755.61700439 197.46817017 C760.89304841 195.91279752 766.17159069 194.36603333 771.45068359 192.82104492 C773.27002075 192.2885326 775.08935668 191.75601609 776.90869141 191.22349548 C777.819263 190.95698622 778.72983459 190.69047695 779.66799927 190.41589165 C782.47301471 189.59459515 785.27779461 188.77249862 788.08251953 187.95021057 C806.8814014 182.44010241 825.69969107 176.99778847 844.52086258 171.5643959 C851.48256156 169.55433572 858.44367897 167.5422615 865.40490532 165.53056526 C867.97223615 164.78866411 870.53959154 164.04684795 873.10694885 163.30503845 C889.86560756 158.46247038 906.62076375 153.60784341 923.375 148.75 C924.78835022 148.34021945 926.20170065 147.93043958 927.61505127 147.5206604 C933.21728868 145.89635254 938.81949883 144.2719507 944.42166138 142.64738464 C954.34600977 139.76943443 964.27058287 136.89226024 974.1953125 134.015625 C974.90850521 133.80890923 975.62169792 133.60219345 976.35650253 133.38921356 C979.96213237 132.34414164 983.56776581 131.29908219 987.17340088 130.25402832 C993.64716479 128.37767226 1000.12089675 126.50120595 1006.5946312 124.62474823 C1010.18808616 123.583161 1013.78154318 122.54158086 1017.375 121.5 C1018.81250001 121.08333337 1020.25000001 120.6666667 1021.6875 120.25 C1092.84375 99.625 1164 79 1237.3125 57.75 C1238.02406344 57.54374969 1238.73562689 57.33749937 1239.46875286 57.12499905 C1240.90624324 56.70833525 1242.3437337 56.29167176 1243.78122425 55.87500858 C1247.37512225 54.83330047 1250.9690187 53.79158704 1254.56291199 52.74986267 C1261.02989309 50.87535189 1267.49688492 49.00087816 1273.9639349 47.12660503 C1277.55539136 46.08573193 1281.14683871 45.04482739 1284.73828125 44.00390625 C1285.80507834 43.69471347 1285.80507834 43.69471347 1286.8934269 43.37927437 C1296.99076001 40.45266848 1307.0875798 37.52429709 1317.18408966 34.59485245 C1330.76907337 30.65327544 1344.35491294 26.71466765 1357.94219971 22.78103638 C1359.37048367 22.3675343 1360.79876736 21.95403129 1362.22705078 21.54052734 C1362.93876434 21.33448191 1363.65047791 21.12843647 1364.38375854 20.91614723 C1369.72093338 19.37081536 1375.05755344 17.82357545 1380.39404297 16.27587891 C1387.40474681 14.24272619 1394.41634898 12.21270244 1401.4289732 10.18618298 C1405.12595541 9.11774297 1408.82254312 8.04798402 1412.51815796 6.974823 C1415.94212539 5.98059885 1419.36715017 4.99010875 1422.79304695 4.00255394 C1424.64905725 3.46648485 1426.50391953 2.92644608 1428.35874939 2.38630676 C1429.45997635 2.06965561 1430.56120331 1.75300446 1431.69580078 1.42675781 C1432.65350372 1.14954895 1433.61120667 0.87234009 1434.59793091 0.58673096 C1437 0 1437 0 1440 0 C1440 73.59 1440 147.18 1440 223 C1365.41207409 244.8026245 1365.41207409 244.8026245 1339.43819046 252.30527496 C1335.52814602 253.43498832 1331.61845503 254.56592376 1327.70874023 255.69677734 C1326.08280976 256.16705429 1324.45687897 256.63733016 1322.83094788 257.10760498 C1322.02407091 257.3409832 1321.21719395 257.57436142 1320.38586617 257.81481171 C1317.97023726 258.51345234 1315.55457416 259.21197466 1313.13890076 259.91046143 C1297.49070667 264.43526395 1281.84520209 268.96932912 1266.20022202 273.50522995 C1262.63521238 274.53880035 1259.07016704 275.57224754 1255.50512695 276.60571289 C1247.00337072 279.07031229 1238.50168065 281.53513987 1230 284 C1218.64588787 287.2918548 1207.29173989 290.58358587 1195.9375 293.875 C1195.23146259 294.0796714 1194.52542519 294.2843428 1193.79799271 294.49521637 C1169.39814757 301.56836747 1144.99607482 308.63380696 1120.59322357 315.69657898 C1097.08163968 322.5014239 1073.57116227 329.31006829 1050.0625 336.125 C1049.35692963 336.32953796 1048.65135925 336.53407593 1047.92440796 336.74481201 C1041.53552887 338.5969017 1035.14667388 340.44907451 1028.75784302 342.30133057 C1018.76444231 345.19862464 1008.77093314 348.09554432 998.77734375 350.9921875 C998.06496614 351.19867039 997.35258854 351.40515327 996.61862373 351.61789322 C993.01893382 352.66126252 989.41924209 353.70462558 985.81954956 354.74798584 C979.34829259 356.62366381 972.87705163 358.49939703 966.4058094 360.37512589 C962.81220692 361.41675283 959.21860341 362.45837624 955.625 363.5 C954.1875 363.91666665 952.75 364.33333332 951.3125 364.75 C873.6875 387.25 873.6875 387.25 871.53120041 387.87501431 C870.09386566 388.29163312 868.65653097 388.7082521 867.21919632 389.12487125 C863.62291833 390.16727148 860.02663949 391.20966874 856.43035889 392.25205994 C849.99179512 394.11829732 843.55323696 395.98455403 837.11471176 397.85092449 C833.56085383 398.8811 830.00699075 399.91125773 826.453125 400.94140625 C825.74787941 401.14583406 825.04263382 401.35026188 824.31601715 401.56088448 C814.4542219 404.41946172 804.59218483 407.27720342 794.72998047 410.1343689 C789.19264539 411.73858654 783.65537487 413.34302695 778.11811829 414.94751549 C773.62968061 416.24807352 769.14117181 417.54838551 764.65255737 418.84833336 C763.24082658 419.25728534 761.82914363 419.66640249 760.41751099 420.07569313 C757.09077747 421.0402255 753.76353274 422.00287861 750.43481445 422.96054077 C745.13890807 424.48816251 739.85292684 426.02629054 734.60351562 427.70751953 C733.82514343 427.95264786 733.04677124 428.19777618 732.24481201 428.45033264 C730.3250387 429.06037522 728.41158058 429.6902071 726.49902344 430.32250977 C717.07800871 432.14663172 707.89651257 428.44443692 698.921875 425.79296875 C697.42123849 425.35563655 695.92040402 424.91898316 694.41938782 424.48295593 C691.20841491 423.54868682 687.99884437 422.6097973 684.79031372 421.66717529 C679.6766963 420.16487884 674.56014164 418.67276593 669.44311523 417.18212891 C663.26933578 415.38290324 657.09628501 413.58121784 650.92422009 411.77611923 C640.63716127 408.76756297 630.34589671 405.77383323 620.05078125 402.79296875 C619.341068 402.58746336 618.63135475 402.38195797 617.90013504 402.17022514 C615.06288402 401.34872872 612.22559976 400.52734726 609.38825798 399.70616436 C602.30286673 397.65548706 595.21841658 395.60156784 588.13405228 393.54734612 C584.59346794 392.52071583 581.0528362 391.49424909 577.51220703 390.46777344 C576.46095799 390.1629978 576.46095799 390.1629978 575.3884716 389.85206509 C567.51818169 387.57035075 559.64776999 385.28905657 551.77734375 383.0078125 C551.06496614 382.80132961 550.35258854 382.59484673 549.61862373 382.38210678 C546.01893382 381.33873748 542.41924209 380.29537442 538.81954956 379.25201416 C532.34829259 377.37633619 525.87705163 375.50060297 519.4058094 373.62487411 C515.81220692 372.58324717 512.21860341 371.54162376 508.625 370.5 C507.1875 370.08333335 505.75 369.66666668 504.3125 369.25 C503.24515625 368.940625 503.24515625 368.940625 502.15625 368.625 C395.421875 337.6875 395.421875 337.6875 150.6875 266.75 C149.97592113 266.54374528 149.26434227 266.33749056 148.53120041 266.12498569 C147.09386566 265.70836688 145.65653097 265.2917479 144.21919632 264.87512875 C140.62291833 263.83272852 137.02663949 262.79033126 133.43035889 261.74794006 C126.99179512 259.88170268 120.55323696 258.01544597 114.11471176 256.14907551 C110.56085383 255.1189 107.00699075 254.08874227 103.453125 253.05859375 C102.39525661 252.75195203 102.39525661 252.75195203 101.31601715 252.43911552 C91.4542219 249.58053828 81.59218483 246.72279658 71.72998047 243.8656311 C66.19264539 242.26141346 60.65537487 240.65697305 55.11811829 239.05248451 C50.63025507 237.75209293 46.14230763 236.45199259 41.65429306 235.15212345 C38.86678855 234.34469558 36.07936836 233.53697693 33.2919693 232.7291851 C31.42296502 232.18763639 29.55386185 231.646429 27.68475342 231.10523987 C18.44897452 228.42824608 9.22540784 225.71335525 0 223 C0 149.41 0 75.82 0 0 Z " fill="#FFFFFF" transform="translate(0,181)"/>
<path d="M0 0 C475.2 0 950.4 0 1440 0 C1440 17.16 1440 34.32 1440 52 C1434.80894531 53.50046875 1429.61789062 55.0009375 1424.26953125 56.546875 C1390.05189166 66.43826813 1355.83483525 76.33164329 1321.625 86.25 C1320.58253805 86.55223732 1320.58253805 86.55223732 1319.51901627 86.86058044 C1313.20500697 88.69120928 1306.89104498 90.52200125 1300.57713318 92.35296631 C1290.65318595 95.23079731 1280.72901517 98.10785627 1270.8046875 100.984375 C1270.09149479 101.19109077 1269.37830208 101.39780655 1268.64349747 101.61078644 C1265.03786763 102.65585836 1261.43223419 103.70091781 1257.82659912 104.74597168 C1251.35283521 106.62232774 1244.87910325 108.49879405 1238.4053688 110.37525177 C1234.81191384 111.416839 1231.21845682 112.45841914 1227.625 113.5 C1226.18749999 113.91666663 1224.74999999 114.3333333 1223.3125 114.75 C1116.578125 145.6875 1116.578125 145.6875 869.6875 217.25 C868.97592019 217.45625504 868.26434038 217.66251007 867.53119755 217.87501526 C866.09387243 218.2916312 864.65654727 218.708247 863.21922207 219.12486267 C859.62279609 220.16730434 856.02637079 221.20974838 852.4299469 222.25219727 C845.993152 224.1179453 839.55635264 225.98367794 833.11952686 227.84931946 C829.56796236 228.87870103 826.01640199 229.90809683 822.46484375 230.9375 C821.7599626 231.14180634 821.05508144 231.34611267 820.32884026 231.55661011 C810.43659246 234.42385938 800.54453966 237.29178062 790.65261841 240.16015625 C785.08934318 241.77334454 779.52601665 243.38635589 773.96267891 244.99932861 C769.44435622 246.30933899 764.9261012 247.61958238 760.4078989 248.93000793 C757.60776199 249.74207584 754.80755841 250.5539137 752.00733757 251.36569214 C750.11979238 251.91296088 748.23232627 252.46050236 746.34486389 253.00805664 C744.04066661 253.6759486 741.7353266 254.33991355 739.42874146 254.99951172 C737.03244405 255.69873839 734.64443585 256.42672687 732.26339722 257.17626953 C731.04137604 257.55251465 729.81935486 257.92875977 728.56030273 258.31640625 C727.46878403 258.6626001 726.37726532 259.00879395 725.25267029 259.36547852 C719.65661032 260.45714166 714.6287951 259.02101114 709.24169922 257.4597168 C708.14077438 257.14314117 707.03984955 256.82656555 705.90556335 256.50039673 C704.71727432 256.153508 703.52898529 255.80661926 702.3046875 255.44921875 C700.40533195 254.90084854 700.40533195 254.90084854 698.46760559 254.34140015 C694.99662657 253.33915787 691.52736375 252.33109011 688.05837631 251.32197952 C684.36127531 250.24761828 680.66260389 249.17868971 676.96411133 248.10913086 C669.96487146 246.08416013 662.96702322 244.05442412 655.96969891 242.02284527 C648.59142616 239.88086337 641.21175455 237.74372651 633.8318634 235.60732841 C620.22441884 231.66796036 606.61865422 227.72281675 593.0135498 223.77537537 C582.92222226 220.84746853 572.83044052 217.92113246 562.73828125 214.99609375 C562.02706808 214.78996019 561.31585491 214.58382664 560.58308983 214.37144661 C556.99189279 213.33060575 553.40068761 212.28979301 549.80947876 211.24899292 C543.34175251 209.37450922 536.87409859 207.49977603 530.40643883 205.62506294 C526.81262881 204.5833652 523.21881417 203.5416834 519.625 202.5 C518.18749998 202.08333341 516.74999998 201.66666674 515.3125 201.25 C514.6009375 201.04375 513.889375 200.8375 513.15625 200.625 C370.8437171 159.37499046 370.8437171 159.37499046 159.5312109 98.12498856 C158.09384131 97.70835976 156.65647165 97.29173124 155.21910191 96.875103 C151.62335592 95.83285907 148.02761131 94.79061041 144.43186951 93.74835205 C137.98695536 91.8802402 131.54203214 90.01215972 125.09705639 88.14426041 C121.53474945 87.1118224 117.97245071 86.07935607 114.41015625 85.046875 C113.70357439 84.84208275 112.99699253 84.6372905 112.2689991 84.42629242 C102.51686587 81.59972282 92.76511312 78.7718439 83.01364136 75.94299316 C77.57185986 74.36436754 72.12997228 72.78610778 66.68806267 71.20792389 C63.0087504 70.14087293 59.32949505 69.07362675 55.65039062 68.00585938 C37.11280259 62.62590625 18.56302986 57.29164145 0 52 C0 34.84 0 17.68 0 0 Z " fill="#FFFFFF" transform="translate(0,0)"/>
</svg>
