<?xml version="1.0" encoding="UTF-8"?>
<svg version="1.1" xmlns="http://www.w3.org/2000/svg" width="86" height="79">
<path d="M0 0 C1.25031761 0.36411232 1.25031761 0.36411232 2.52589417 0.73558044 C5.16572867 1.50544894 7.80356997 2.28190955 10.44140625 3.05859375 C12.24010637 3.58442244 14.0389333 4.10981754 15.83789062 4.63476562 C20.22804536 5.91686404 24.61642581 7.20487472 29.00390625 8.49609375 C29.00390625 13.44609375 29.00390625 18.39609375 29.00390625 23.49609375 C27.81539063 23.11163086 26.626875 22.72716797 25.40234375 22.33105469 C20.92683792 20.89545258 16.43578476 19.51501786 11.93847656 18.14941406 C10.00619405 17.55461828 8.07823089 16.94557453 6.15527344 16.32128906 C-6.98998622 12.06720399 -15.87601093 10.51615141 -28.99609375 15.49609375 C-30.90970205 16.08938302 -32.82572252 16.67507428 -34.74609375 17.24609375 C-35.85210937 17.60960937 -35.85210937 17.60960937 -36.98046875 17.98046875 C-38.99609375 18.49609375 -38.99609375 18.49609375 -42.99609375 18.49609375 C-42.99609375 23.11609375 -42.99609375 27.73609375 -42.99609375 32.49609375 C-42.04605469 32.59277344 -41.09601562 32.68945312 -40.1171875 32.7890625 C-37.02395427 33.22607387 -34.23124842 34.02396349 -31.28125 35.046875 C-20.05655087 38.90083512 -12.73988521 40.45797504 -1.34716797 36.31689453 C2.54643478 34.95757029 6.51084516 33.84427553 10.47143555 32.69799805 C12.6288263 32.07236275 14.78281125 31.43483833 16.93286133 30.78442383 C17.9205249 30.48818115 18.90818848 30.19193848 19.92578125 29.88671875 C20.8084668 29.61891602 21.69115234 29.35111328 22.60058594 29.07519531 C25.00390625 28.49609375 25.00390625 28.49609375 29.00390625 28.49609375 C29.00390625 33.11609375 29.00390625 37.73609375 29.00390625 42.49609375 C23.29839942 44.24157231 17.58765446 45.96823251 11.87133789 47.67797852 C9.92904414 48.261751 7.98825783 48.85056434 6.04907227 49.44458008 C3.25531552 50.29940229 0.45657174 51.13572317 -2.34375 51.96875 C-3.20444595 52.23639664 -4.06514191 52.50404327 -4.95191956 52.77980042 C-13.30424126 55.22672701 -19.85760717 53.4011303 -27.9921875 50.9921875 C-29.24250511 50.62807518 -29.24250511 50.62807518 -30.51808167 50.25660706 C-33.15791617 49.48673856 -35.79575747 48.71027795 -38.43359375 47.93359375 C-40.23229387 47.40776506 -42.0311208 46.88236996 -43.83007812 46.35742188 C-48.22049116 45.07612568 -52.60814269 43.78591762 -56.99609375 42.49609375 C-56.99609375 31.27609375 -56.99609375 20.05609375 -56.99609375 8.49609375 C-51.28869523 6.75550334 -45.58001713 5.02400738 -39.86352539 3.31420898 C-37.92123164 2.7304365 -35.98044533 2.14162316 -34.04125977 1.54760742 C-31.24750302 0.69278521 -28.44875924 -0.14353567 -25.6484375 -0.9765625 C-24.78774155 -1.24420914 -23.92704559 -1.51185577 -23.04026794 -1.78761292 C-14.68794624 -4.23453951 -8.13458033 -2.4089428 0 0 Z " fill="#BEE712" transform="translate(56.99609375,3.50390625)"/>
<path d="M0 0 C1.08265137 0.42635742 2.16530273 0.85271484 3.28076172 1.29199219 C32.418239 12.45442771 52.65918732 12.79089409 81.71337891 1.29199219 C85 0 85 0 86 0 C86 4.95 86 9.9 86 15 C80.32685893 16.83515653 74.63992333 18.61425411 68.93457031 20.34667969 C67.0022878 20.94147547 65.07432464 21.55051922 63.15136719 22.17480469 C49.90077174 26.46297866 41.11812989 27.7786493 28 23 C25.44840204 22.24213007 22.88200983 21.5561579 20.3125 20.859375 C17.87420452 20.15901353 15.43669505 19.45590951 13 18.75 C11.73671875 18.38648437 10.4734375 18.02296875 9.171875 17.6484375 C6.11386904 16.76810245 3.05682728 15.88441913 0 15 C0 10.05 0 5.1 0 0 Z " fill="#BEE712" transform="translate(0,52)"/>
</svg>
